<?xml version="1.0" encoding="UTF-8"?>
<svg version="1.1" xmlns="http://www.w3.org/2000/svg" width="512" height="512">
<path d="M0 0 C0.72510773 0.00054382 1.45021545 0.00108765 2.19729614 0.00164795 C14.17731791 0.04283849 25.45848713 1.02275687 37 4.375 C37.75732422 4.58930664 38.51464844 4.80361328 39.29492188 5.02441406 C61.37624152 11.42520166 81.7157053 22.17674087 99 37.375 C99.78117188 38.04660156 100.56234375 38.71820313 101.3671875 39.41015625 C106.67520552 44.0655491 111.72913992 48.97673326 116.75 53.9375 C117.37616211 54.55061035 118.00232422 55.1637207 118.64746094 55.79541016 C122.43956136 59.58045457 125.69258968 63.48081199 128.74707031 67.88647461 C129.16053711 68.37768799 129.57400391 68.86890137 130 69.375 C130.66 69.375 131.32 69.375 132 69.375 C133.2252906 67.97364896 134.37948516 66.50989917 135.5 65.0234375 C147.09428366 50.185888 161.26257765 36.74318413 177 26.375 C177.61504395 25.96894531 178.23008789 25.56289062 178.86376953 25.14453125 C194.13339752 15.22950094 210.42346373 8.07605623 228 3.375 C229.26070313 3.03339844 230.52140625 2.69179687 231.8203125 2.33984375 C241.65452861 0.16904656 251.53297422 0.06478623 261.5625 0 C262.25506897 -0.0080365 262.94763794 -0.016073 263.66119385 -0.02435303 C297.04529159 -0.31784612 326.97869395 13.5080386 350.6875 36.625 C364.5641912 50.66674067 374.52420207 67.28416281 380.875 85.9375 C381.14924805 86.73881348 381.42349609 87.54012695 381.70605469 88.36572266 C385.96315189 101.63676045 387.56573436 114.75658585 387.4375 128.625 C387.43243942 129.69817474 387.43243942 129.69817474 387.42727661 130.79302979 C387.17666592 167.66713915 372.3784217 198.92408707 346.48046875 224.90234375 C321.59229224 248.55157736 289.27821276 258.16144954 255.515625 257.62109375 C226.93633554 256.78663164 197.86598809 246.56621732 175 229.375 C173.96230469 228.61832031 172.92460937 227.86164063 171.85546875 227.08203125 C163.72009813 221.0622932 156.29545621 214.37717154 149 207.375 C147.74509766 206.18197266 147.74509766 206.18197266 146.46484375 204.96484375 C141.15314142 199.79891712 136.5042862 194.25389126 132 188.375 C128.32286233 189.60071256 127.63470306 190.87620678 125.3125 193.9375 C115.11982796 206.6617935 103.23853491 217.87578993 90 227.375 C89.40364746 227.80506348 88.80729492 228.23512695 88.19287109 228.67822266 C57.0342324 250.89417472 18.43649133 262.02258756 -19.82202148 256.65698242 C-41.463432 252.91160891 -62.55214276 244.08846105 -79 229.375 C-79.82628906 228.66730469 -80.65257812 227.95960938 -81.50390625 227.23046875 C-99.18797354 211.81428184 -111.71331869 192.52166588 -119.3125 170.375 C-119.54291992 169.71266357 -119.77333984 169.05032715 -120.01074219 168.36791992 C-124.17338683 155.50253622 -125.56181593 142.56963963 -125.4375 129.125 C-125.43412628 128.40955017 -125.43075256 127.69410034 -125.42727661 126.95697021 C-125.18863915 91.84456662 -111.76010817 60.03980576 -87.125 35 C-63.48588237 11.80757527 -32.94217544 -0.0932739 0 0 Z M-50 86.375 C-61.45460681 102.71989911 -66.24460092 121.49940801 -62.8125 141.1875 C-59.46616489 158.67702798 -50.59613458 173.53574734 -36.37109375 184.37890625 C-21.1112429 194.66320166 -3.74900356 197.90292836 14.30859375 194.7265625 C49.65656837 187.15076247 75.48447605 160.74752967 94.6015625 131.54296875 C95.06304687 130.82753906 95.52453125 130.11210937 96 129.375 C80.55954881 100.60200905 54.79623974 74.82073925 23.09423828 64.9609375 C-4.80914421 57.15397574 -31.06117086 63.60443428 -50 86.375 Z M201 86.375 C200.18015625 87.07367188 199.3603125 87.77234375 198.515625 88.4921875 C185.57769893 99.78273789 173.28100234 113.65297122 166 129.375 C186.3054469 159.9706347 211.48552692 186.95866694 248.8359375 194.984375 C266.82492321 197.20523743 282.90183735 194.99187721 298 184.375 C313.17562447 172.46529185 322.86069338 156.39690349 325.6875 137.25 C325.8421875 135.331875 325.8421875 135.331875 326 133.375 C326.05285156 132.73820312 326.10570312 132.10140625 326.16015625 131.4453125 C326.93021117 113.70056858 319.97852017 95.87871751 308.5625 82.5234375 C296.00267184 69.2698979 281.30986404 62.29821703 263.125 61.125 C240.02038947 61.51726843 218.22757489 71.37217816 201 86.375 Z " fill="#FE3C42" transform="translate(125,127.625)"/>
<path d="M0 0 C3.73902248 1.24634083 3.89351954 2.14949773 5.64453125 5.57421875 C6.14976318 6.54166016 6.65499512 7.50910156 7.17553711 8.50585938 C7.71573486 9.55580078 8.25593262 10.60574219 8.8125 11.6875 C13.37622732 20.34017611 18.16315721 28.75977023 23.4375 37 C24.00380127 37.88776123 24.57010254 38.77552246 25.15356445 39.69018555 C28.2113158 44.41957379 31.39000559 48.89730138 35.01586914 53.2109375 C36 55 36 55 35.81274414 57.02612305 C34.94902274 59.12380629 34.00886777 60.49833726 32.5234375 62.20703125 C32.02038086 62.79081543 31.51732422 63.37459961 30.99902344 63.97607422 C30.4630957 64.58209473 29.92716797 65.18811523 29.375 65.8125 C28.56337402 66.74473389 28.56337402 66.74473389 27.73535156 67.69580078 C23.98452523 71.97237055 20.11621081 76.07088969 16 80 C12.52240652 78.84080217 12.23447862 78.23896772 10.390625 75.22265625 C9.64014893 74.00545898 9.64014893 74.00545898 8.87451172 72.76367188 C8.33842285 71.87228516 7.80233398 70.98089844 7.25 70.0625 C6.68941895 69.14404297 6.12883789 68.22558594 5.55126953 67.27929688 C-0.98320086 56.50397135 -7.24687996 45.56764865 -13.48876953 34.62109375 C-14.52368343 32.82612838 -15.60764082 31.0588079 -16.73144531 29.31811523 C-18 27 -18 27 -17.4140625 24.47265625 C-15.92898766 21.87582649 -14.3114546 19.71727026 -12.375 17.4375 C-7.8059128 11.88932268 -3.89905391 6.0352377 0 0 Z " fill="#D72E2E" transform="translate(220,257)"/>
<path d="M0 0 C1.375 1.9140625 1.375 1.9140625 3 4.625 C5.78364305 9.13185065 8.70440642 13.46601808 11.8125 17.75 C15.82411287 23.29675102 19.67767612 28.92931582 23.43603516 34.65063477 C26.43670035 39.20806763 29.60125013 43.61427499 32.91796875 47.94921875 C34 50 34 50 33.92578125 51.96484375 C32.6841953 54.69423735 30.97532342 56.61846735 29 58.875 C24.79727919 63.84429708 21.28244046 69.01131655 17.91992188 74.57958984 C16.99525845 76.08406272 16.00340835 77.54686106 15 79 C14.34 79 13.68 79 13 79 C12.48167603 78.05253906 12.48167603 78.05253906 11.95288086 77.0859375 C5.22640807 64.83150701 -1.64130702 52.72373022 -9.0625 40.875 C-9.68068604 39.88757813 -10.29887207 38.90015625 -10.93579102 37.8828125 C-13.50361665 33.81863813 -16.06112153 29.89255982 -19.05859375 26.1328125 C-21 23 -21 23 -20.67578125 20.46875 C-18.44827252 17.18719867 -15.92967815 14.35823164 -13.1875 11.5 C-12.66607422 10.94441406 -12.14464844 10.38882813 -11.60742188 9.81640625 C-10.08341728 8.19917291 -8.54362639 6.59848628 -7 5 C-6.29157959 4.24783203 -6.29157959 4.24783203 -5.56884766 3.48046875 C-2.22931338 0 -2.22931338 0 0 0 Z " fill="#D72E2E" transform="translate(277,177)"/>
</svg>
